<mxfile host="app.diagrams.net" modified="2024-03-08T23:42:45.968Z" agent="Mozilla/5.0 (Windows NT 10.0; Win64; x64) AppleWebKit/537.36 (KHTML, like Gecko) Chrome/122.0.0.0 Safari/537.36" etag="-BE9U-WppJGoVAnki2Fi" version="23.1.2" type="device">
  <diagram name="StrÃ¡nka-1" id="QJXIGsJxzs8j56iIsud3">
    <mxGraphModel dx="1050" dy="530" grid="1" gridSize="10" guides="1" tooltips="1" connect="1" arrows="1" fold="1" page="1" pageScale="1" pageWidth="1169" pageHeight="827" math="0" shadow="0">
      <root>
        <mxCell id="0" />
        <mxCell id="1" parent="0" />
        <mxCell id="OE8SEbp5B2noeT08bBmC-11" style="edgeStyle=orthogonalEdgeStyle;rounded=0;orthogonalLoop=1;jettySize=auto;html=1;exitX=0.5;exitY=0;exitDx=0;exitDy=0;entryX=0;entryY=0.5;entryDx=0;entryDy=0;" edge="1" parent="1" source="OE8SEbp5B2noeT08bBmC-1" target="OE8SEbp5B2noeT08bBmC-3">
          <mxGeometry relative="1" as="geometry" />
        </mxCell>
        <mxCell id="OE8SEbp5B2noeT08bBmC-12" value="1:N" style="edgeLabel;html=1;align=center;verticalAlign=middle;resizable=0;points=[];" vertex="1" connectable="0" parent="OE8SEbp5B2noeT08bBmC-11">
          <mxGeometry x="-0.6543" y="3" relative="1" as="geometry">
            <mxPoint as="offset" />
          </mxGeometry>
        </mxCell>
        <mxCell id="OE8SEbp5B2noeT08bBmC-1" value="&lt;b&gt;User&lt;/b&gt;" style="rounded=0;whiteSpace=wrap;html=1;" vertex="1" parent="1">
          <mxGeometry x="160" y="170" width="120" height="60" as="geometry" />
        </mxCell>
        <mxCell id="OE8SEbp5B2noeT08bBmC-14" style="edgeStyle=orthogonalEdgeStyle;rounded=0;orthogonalLoop=1;jettySize=auto;html=1;exitX=0.25;exitY=0;exitDx=0;exitDy=0;entryX=1;entryY=0.5;entryDx=0;entryDy=0;" edge="1" parent="1" source="OE8SEbp5B2noeT08bBmC-2" target="OE8SEbp5B2noeT08bBmC-3">
          <mxGeometry relative="1" as="geometry" />
        </mxCell>
        <mxCell id="OE8SEbp5B2noeT08bBmC-15" value="N:1" style="edgeLabel;html=1;align=center;verticalAlign=middle;resizable=0;points=[];" vertex="1" connectable="0" parent="OE8SEbp5B2noeT08bBmC-14">
          <mxGeometry x="-0.3782" y="1" relative="1" as="geometry">
            <mxPoint as="offset" />
          </mxGeometry>
        </mxCell>
        <mxCell id="OE8SEbp5B2noeT08bBmC-16" style="edgeStyle=orthogonalEdgeStyle;rounded=0;orthogonalLoop=1;jettySize=auto;html=1;exitX=0.75;exitY=0;exitDx=0;exitDy=0;entryX=0;entryY=0.5;entryDx=0;entryDy=0;" edge="1" parent="1" source="OE8SEbp5B2noeT08bBmC-2" target="OE8SEbp5B2noeT08bBmC-4">
          <mxGeometry relative="1" as="geometry" />
        </mxCell>
        <mxCell id="OE8SEbp5B2noeT08bBmC-17" value="1:N" style="edgeLabel;html=1;align=center;verticalAlign=middle;resizable=0;points=[];" vertex="1" connectable="0" parent="OE8SEbp5B2noeT08bBmC-16">
          <mxGeometry x="-0.3964" y="1" relative="1" as="geometry">
            <mxPoint as="offset" />
          </mxGeometry>
        </mxCell>
        <mxCell id="OE8SEbp5B2noeT08bBmC-2" value="&lt;b&gt;Group&lt;/b&gt;" style="rounded=0;whiteSpace=wrap;html=1;" vertex="1" parent="1">
          <mxGeometry x="400" y="170" width="120" height="60" as="geometry" />
        </mxCell>
        <mxCell id="OE8SEbp5B2noeT08bBmC-3" value="&lt;b&gt;User-Group&lt;/b&gt;" style="rounded=0;whiteSpace=wrap;html=1;" vertex="1" parent="1">
          <mxGeometry x="280" y="60" width="120" height="60" as="geometry" />
        </mxCell>
        <mxCell id="OE8SEbp5B2noeT08bBmC-4" value="&lt;b&gt;Img-Group&lt;/b&gt;" style="rounded=0;whiteSpace=wrap;html=1;" vertex="1" parent="1">
          <mxGeometry x="520" y="60" width="120" height="60" as="geometry" />
        </mxCell>
        <mxCell id="OE8SEbp5B2noeT08bBmC-18" style="edgeStyle=orthogonalEdgeStyle;rounded=0;orthogonalLoop=1;jettySize=auto;html=1;exitX=0.25;exitY=0;exitDx=0;exitDy=0;entryX=1;entryY=0.5;entryDx=0;entryDy=0;" edge="1" parent="1" source="OE8SEbp5B2noeT08bBmC-5" target="OE8SEbp5B2noeT08bBmC-4">
          <mxGeometry relative="1" as="geometry" />
        </mxCell>
        <mxCell id="OE8SEbp5B2noeT08bBmC-19" value="N:1" style="edgeLabel;html=1;align=center;verticalAlign=middle;resizable=0;points=[];" vertex="1" connectable="0" parent="OE8SEbp5B2noeT08bBmC-18">
          <mxGeometry x="-0.336" y="3" relative="1" as="geometry">
            <mxPoint as="offset" />
          </mxGeometry>
        </mxCell>
        <mxCell id="OE8SEbp5B2noeT08bBmC-20" style="edgeStyle=orthogonalEdgeStyle;rounded=0;orthogonalLoop=1;jettySize=auto;html=1;exitX=0.75;exitY=0;exitDx=0;exitDy=0;entryX=0;entryY=0.5;entryDx=0;entryDy=0;" edge="1" parent="1" source="OE8SEbp5B2noeT08bBmC-5" target="OE8SEbp5B2noeT08bBmC-6">
          <mxGeometry relative="1" as="geometry" />
        </mxCell>
        <mxCell id="OE8SEbp5B2noeT08bBmC-21" value="1:N" style="edgeLabel;html=1;align=center;verticalAlign=middle;resizable=0;points=[];" vertex="1" connectable="0" parent="OE8SEbp5B2noeT08bBmC-20">
          <mxGeometry x="-0.536" y="-2" relative="1" as="geometry">
            <mxPoint as="offset" />
          </mxGeometry>
        </mxCell>
        <mxCell id="OE8SEbp5B2noeT08bBmC-5" value="&lt;b&gt;Img&lt;/b&gt;" style="rounded=0;whiteSpace=wrap;html=1;" vertex="1" parent="1">
          <mxGeometry x="640" y="160" width="120" height="60" as="geometry" />
        </mxCell>
        <mxCell id="OE8SEbp5B2noeT08bBmC-6" value="&lt;b&gt;Img-Tag&lt;/b&gt;" style="rounded=0;whiteSpace=wrap;html=1;" vertex="1" parent="1">
          <mxGeometry x="760" y="60" width="120" height="60" as="geometry" />
        </mxCell>
        <mxCell id="OE8SEbp5B2noeT08bBmC-22" style="edgeStyle=orthogonalEdgeStyle;rounded=0;orthogonalLoop=1;jettySize=auto;html=1;exitX=0.25;exitY=0;exitDx=0;exitDy=0;entryX=1;entryY=0.5;entryDx=0;entryDy=0;" edge="1" parent="1" source="OE8SEbp5B2noeT08bBmC-7" target="OE8SEbp5B2noeT08bBmC-6">
          <mxGeometry relative="1" as="geometry" />
        </mxCell>
        <mxCell id="OE8SEbp5B2noeT08bBmC-23" value="N:1" style="edgeLabel;html=1;align=center;verticalAlign=middle;resizable=0;points=[];" vertex="1" connectable="0" parent="OE8SEbp5B2noeT08bBmC-22">
          <mxGeometry x="-0.396" y="-1" relative="1" as="geometry">
            <mxPoint as="offset" />
          </mxGeometry>
        </mxCell>
        <mxCell id="OE8SEbp5B2noeT08bBmC-7" value="&lt;b&gt;Tag&lt;/b&gt;" style="rounded=0;whiteSpace=wrap;html=1;" vertex="1" parent="1">
          <mxGeometry x="880" y="160" width="120" height="60" as="geometry" />
        </mxCell>
        <mxCell id="OE8SEbp5B2noeT08bBmC-8" value="&lt;span style=&quot;font-size: 10px;&quot;&gt;&lt;b&gt;Rozvrh&lt;/b&gt;&lt;br&gt;Array of imgId&lt;br&gt;&lt;/span&gt;" style="rounded=0;whiteSpace=wrap;html=1;" vertex="1" parent="1">
          <mxGeometry x="520" y="260" width="120" height="60" as="geometry" />
        </mxCell>
      </root>
    </mxGraphModel>
  </diagram>
</mxfile>
